<svg xmlns="http://www.w3.org/2000/svg" viewBox="0 0 300 105" fill="none">
  <!--
    Kilo logo — white text + cyan K-slash variant (for dark backgrounds)
    Traced from kilo_logo.webp
  -->

  <!-- K: main body (white) -->
  <!-- Vertical bar -->
  <rect x="0" y="17" width="23" height="88" rx="1" fill="#FFFFFF"/>
  <!-- Lower diagonal arm -->
  <polygon points="23,58 62,105 40,105 23,84" fill="#FFFFFF"/>
  <polygon points="40,105 62,105 64,105" fill="#FFFFFF"/>
  <!-- Upper diagonal arm (white portion) -->
  <polygon points="23,48 23,20 40,0 64,0 23,48" fill="#FFFFFF"/>
  <!-- Lower-right diagonal -->
  <polygon points="28,105 66,105 23,58" fill="#FFFFFF"/>

  <!-- K: cyan accent slash (upper-left) -->
  <polygon points="5,0 40,0 19,25 0,10 0,0" fill="#1EB1F9"/>

  <!-- I -->
  <rect x="76" y="17" width="23" height="88" rx="1" fill="#FFFFFF"/>

  <!-- L -->
  <rect x="110" y="17" width="23" height="88" rx="1" fill="#FFFFFF"/>
  <rect x="110" y="85" width="58" height="20" rx="1" fill="#FFFFFF"/>

  <!-- O (ring with evenodd hole) -->
  <path d="M256,17 C279,17 298,36 298,59 C298,82 279,101 256,101 C233,101 214,82 214,59 C214,36 233,17 256,17 Z M256,39 C244,39 234,49 234,59 C234,69 244,79 256,79 C268,79 278,69 278,59 C278,49 268,39 256,39 Z" fill="#FFFFFF" fill-rule="evenodd"/>
</svg>